solid ascii
 facet normal 1 0 0
  outer loop
   vertex 0.01 0.029 0
   vertex 0.01 0.034 0
   vertex 0.01 0.029 0.001
  endloop
 endfacet
 facet normal 1 0 -0
  outer loop
   vertex 0.01 0.029 0.001
   vertex 0.01 0.034 0
   vertex 0.01 0.034 0.001
  endloop
 endfacet
 facet normal 0 -1 0
  outer loop
   vertex 0.007 0.029 0
   vertex 0.01 0.029 0
   vertex 0.007 0.029 0.001
  endloop
 endfacet
 facet normal 0 -1 0
  outer loop
   vertex 0.007 0.029 0.001
   vertex 0.01 0.029 0
   vertex 0.01 0.029 0.001
  endloop
 endfacet
 facet normal 1 0 0
  outer loop
   vertex 0.007 0.027 0
   vertex 0.007 0.029 0
   vertex 0.007 0.027 0.001
  endloop
 endfacet
 facet normal 1 0 -0
  outer loop
   vertex 0.007 0.027 0.001
   vertex 0.007 0.029 0
   vertex 0.007 0.029 0.001
  endloop
 endfacet
 facet normal 0 1 0
  outer loop
   vertex 0.013 0.027 0
   vertex 0.007 0.027 0
   vertex 0.013 0.027 0.001
  endloop
 endfacet
 facet normal 0 1 0
  outer loop
   vertex 0.013 0.027 0.001
   vertex 0.007 0.027 0
   vertex 0.007 0.027 0.001
  endloop
 endfacet
 facet normal 1 0 0
  outer loop
   vertex 0.013 0.021 0
   vertex 0.013 0.027 0
   vertex 0.013 0.021 0.001
  endloop
 endfacet
 facet normal 1 0 -0
  outer loop
   vertex 0.013 0.021 0.001
   vertex 0.013 0.027 0
   vertex 0.013 0.027 0.001
  endloop
 endfacet
 facet normal 0 -1 0
  outer loop
   vertex 0.007 0.021 0
   vertex 0.013 0.021 0
   vertex 0.007 0.021 0.001
  endloop
 endfacet
 facet normal 0 -1 0
  outer loop
   vertex 0.007 0.021 0.001
   vertex 0.013 0.021 0
   vertex 0.013 0.021 0.001
  endloop
 endfacet
 facet normal 1 0 0
  outer loop
   vertex 0.007 0.019 0
   vertex 0.007 0.021 0
   vertex 0.007 0.019 0.001
  endloop
 endfacet
 facet normal 1 0 -0
  outer loop
   vertex 0.007 0.019 0.001
   vertex 0.007 0.021 0
   vertex 0.007 0.021 0.001
  endloop
 endfacet
 facet normal 0 1 0
  outer loop
   vertex 0.013 0.019 0
   vertex 0.007 0.019 0
   vertex 0.013 0.019 0.001
  endloop
 endfacet
 facet normal 0 1 0
  outer loop
   vertex 0.013 0.019 0.001
   vertex 0.007 0.019 0
   vertex 0.007 0.019 0.001
  endloop
 endfacet
 facet normal 1 0 0
  outer loop
   vertex 0.013 0.013 0
   vertex 0.013 0.019 0
   vertex 0.013 0.013 0.001
  endloop
 endfacet
 facet normal 1 0 -0
  outer loop
   vertex 0.013 0.013 0.001
   vertex 0.013 0.019 0
   vertex 0.013 0.019 0.001
  endloop
 endfacet
 facet normal 0 -1 0
  outer loop
   vertex 0.01 0.013 0
   vertex 0.013 0.013 0
   vertex 0.01 0.013 0.001
  endloop
 endfacet
 facet normal 0 -1 0
  outer loop
   vertex 0.01 0.013 0.001
   vertex 0.013 0.013 0
   vertex 0.013 0.013 0.001
  endloop
 endfacet
 facet normal 1 0 0
  outer loop
   vertex 0.01 0.011 0
   vertex 0.01 0.013 0
   vertex 0.01 0.011 0.001
  endloop
 endfacet
 facet normal 1 0 -0
  outer loop
   vertex 0.01 0.011 0.001
   vertex 0.01 0.013 0
   vertex 0.01 0.013 0.001
  endloop
 endfacet
 facet normal 0 1 0
  outer loop
   vertex 0.013 0.011 0
   vertex 0.01 0.011 0
   vertex 0.013 0.011 0.001
  endloop
 endfacet
 facet normal 0 1 0
  outer loop
   vertex 0.013 0.011 0.001
   vertex 0.01 0.011 0
   vertex 0.01 0.011 0.001
  endloop
 endfacet
 facet normal 1 0 0
  outer loop
   vertex 0.013 0.007 0
   vertex 0.013 0.011 0
   vertex 0.013 0.007 0.001
  endloop
 endfacet
 facet normal 1 0 -0
  outer loop
   vertex 0.013 0.007 0.001
   vertex 0.013 0.011 0
   vertex 0.013 0.011 0.001
  endloop
 endfacet
 facet normal 0 -1 0
  outer loop
   vertex 0.011 0.007 0
   vertex 0.013 0.007 0
   vertex 0.011 0.007 0.001
  endloop
 endfacet
 facet normal 0 -1 0
  outer loop
   vertex 0.011 0.007 0.001
   vertex 0.013 0.007 0
   vertex 0.013 0.007 0.001
  endloop
 endfacet
 facet normal -1 0 0
  outer loop
   vertex 0.011 0.009 0
   vertex 0.011 0.007 0
   vertex 0.011 0.009 0.001
  endloop
 endfacet
 facet normal -1 0 0
  outer loop
   vertex 0.011 0.009 0.001
   vertex 0.011 0.007 0
   vertex 0.011 0.007 0.001
  endloop
 endfacet
 facet normal 0 -1 0
  outer loop
   vertex 0.007 0.009 0
   vertex 0.011 0.009 0
   vertex 0.007 0.009 0.001
  endloop
 endfacet
 facet normal 0 -1 0
  outer loop
   vertex 0.007 0.009 0.001
   vertex 0.011 0.009 0
   vertex 0.011 0.009 0.001
  endloop
 endfacet
 facet normal 1 0 0
  outer loop
   vertex 0.007 0.007 0
   vertex 0.007 0.009 0
   vertex 0.007 0.007 0.001
  endloop
 endfacet
 facet normal 1 0 -0
  outer loop
   vertex 0.007 0.007 0.001
   vertex 0.007 0.009 0
   vertex 0.007 0.009 0.001
  endloop
 endfacet
 facet normal 0 -1 0
  outer loop
   vertex 0.005 0.007 0
   vertex 0.007 0.007 0
   vertex 0.005 0.007 0.001
  endloop
 endfacet
 facet normal 0 -1 0
  outer loop
   vertex 0.005 0.007 0.001
   vertex 0.007 0.007 0
   vertex 0.007 0.007 0.001
  endloop
 endfacet
 facet normal -1 0 0
  outer loop
   vertex 0.005 0.011 0
   vertex 0.005 0.007 0
   vertex 0.005 0.011 0.001
  endloop
 endfacet
 facet normal -1 0 0
  outer loop
   vertex 0.005 0.011 0.001
   vertex 0.005 0.007 0
   vertex 0.005 0.007 0.001
  endloop
 endfacet
 facet normal 0 1 0
  outer loop
   vertex 0.008 0.011 0
   vertex 0.005 0.011 0
   vertex 0.008 0.011 0.001
  endloop
 endfacet
 facet normal 0 1 0
  outer loop
   vertex 0.008 0.011 0.001
   vertex 0.005 0.011 0
   vertex 0.005 0.011 0.001
  endloop
 endfacet
 facet normal -1 0 0
  outer loop
   vertex 0.008 0.015 0
   vertex 0.008 0.011 0
   vertex 0.008 0.015 0.001
  endloop
 endfacet
 facet normal -1 0 0
  outer loop
   vertex 0.008 0.015 0.001
   vertex 0.008 0.011 0
   vertex 0.008 0.011 0.001
  endloop
 endfacet
 facet normal 0 1 0
  outer loop
   vertex 0.011 0.015 0
   vertex 0.008 0.015 0
   vertex 0.011 0.015 0.001
  endloop
 endfacet
 facet normal 0 1 0
  outer loop
   vertex 0.011 0.015 0.001
   vertex 0.008 0.015 0
   vertex 0.008 0.015 0.001
  endloop
 endfacet
 facet normal -1 0 0
  outer loop
   vertex 0.011 0.017 0
   vertex 0.011 0.015 0
   vertex 0.011 0.017 0.001
  endloop
 endfacet
 facet normal -1 0 0
  outer loop
   vertex 0.011 0.017 0.001
   vertex 0.011 0.015 0
   vertex 0.011 0.015 0.001
  endloop
 endfacet
 facet normal 0 -1 0
  outer loop
   vertex 0.005 0.017 0
   vertex 0.011 0.017 0
   vertex 0.005 0.017 0.001
  endloop
 endfacet
 facet normal 0 -1 0
  outer loop
   vertex 0.005 0.017 0.001
   vertex 0.011 0.017 0
   vertex 0.011 0.017 0.001
  endloop
 endfacet
 facet normal -1 0 0
  outer loop
   vertex 0.005 0.023 0
   vertex 0.005 0.017 0
   vertex 0.005 0.023 0.001
  endloop
 endfacet
 facet normal -1 0 0
  outer loop
   vertex 0.005 0.023 0.001
   vertex 0.005 0.017 0
   vertex 0.005 0.017 0.001
  endloop
 endfacet
 facet normal 0 1 0
  outer loop
   vertex 0.011 0.023 0
   vertex 0.005 0.023 0
   vertex 0.011 0.023 0.001
  endloop
 endfacet
 facet normal 0 1 0
  outer loop
   vertex 0.011 0.023 0.001
   vertex 0.005 0.023 0
   vertex 0.005 0.023 0.001
  endloop
 endfacet
 facet normal -1 0 0
  outer loop
   vertex 0.011 0.025 0
   vertex 0.011 0.023 0
   vertex 0.011 0.025 0.001
  endloop
 endfacet
 facet normal -1 0 0
  outer loop
   vertex 0.011 0.025 0.001
   vertex 0.011 0.023 0
   vertex 0.011 0.023 0.001
  endloop
 endfacet
 facet normal 0 -1 0
  outer loop
   vertex 0.005 0.025 0
   vertex 0.011 0.025 0
   vertex 0.005 0.025 0.001
  endloop
 endfacet
 facet normal 0 -1 0
  outer loop
   vertex 0.005 0.025 0.001
   vertex 0.011 0.025 0
   vertex 0.011 0.025 0.001
  endloop
 endfacet
 facet normal -1 0 0
  outer loop
   vertex 0.005 0.031 0
   vertex 0.005 0.025 0
   vertex 0.005 0.031 0.001
  endloop
 endfacet
 facet normal -1 0 0
  outer loop
   vertex 0.005 0.031 0.001
   vertex 0.005 0.025 0
   vertex 0.005 0.025 0.001
  endloop
 endfacet
 facet normal 0 1 0
  outer loop
   vertex 0.008 0.031 0
   vertex 0.005 0.031 0
   vertex 0.008 0.031 0.001
  endloop
 endfacet
 facet normal 0 1 0
  outer loop
   vertex 0.008 0.031 0.001
   vertex 0.005 0.031 0
   vertex 0.005 0.031 0.001
  endloop
 endfacet
 facet normal -1 0 0
  outer loop
   vertex 0.008 0.034 0
   vertex 0.008 0.031 0
   vertex 0.008 0.034 0.001
  endloop
 endfacet
 facet normal -1 0 0
  outer loop
   vertex 0.008 0.034 0.001
   vertex 0.008 0.031 0
   vertex 0.008 0.031 0.001
  endloop
 endfacet
 facet normal 0 1 0
  outer loop
   vertex 0.01 0.034 0
   vertex 0.008 0.034 0
   vertex 0.01 0.034 0.001
  endloop
 endfacet
 facet normal 0 1 0
  outer loop
   vertex 0.01 0.034 0.001
   vertex 0.008 0.034 0
   vertex 0.008 0.034 0.001
  endloop
 endfacet
 facet normal -0 0 -1
  outer loop
   vertex 0.008 0.034 0
   vertex 0.01 0.034 0
   vertex 0.008 0.031 0
  endloop
 endfacet
 facet normal 0 -0 -1
  outer loop
   vertex 0.008 0.031 0
   vertex 0.01 0.034 0
   vertex 0.01 0.029 0
  endloop
 endfacet
 facet normal 0 -0 -1
  outer loop
   vertex 0.007 0.029 0
   vertex 0.008 0.031 0
   vertex 0.01 0.029 0
  endloop
 endfacet
 facet normal 0 0 -1
  outer loop
   vertex 0.007 0.029 0
   vertex 0.005 0.031 0
   vertex 0.008 0.031 0
  endloop
 endfacet
 facet normal 0 0 -1
  outer loop
   vertex 0.007 0.029 0
   vertex 0.005 0.025 0
   vertex 0.005 0.031 0
  endloop
 endfacet
 facet normal -0 0 -1
  outer loop
   vertex 0.007 0.029 0
   vertex 0.007 0.027 0
   vertex 0.005 0.025 0
  endloop
 endfacet
 facet normal 0 -0 -1
  outer loop
   vertex 0.005 0.025 0
   vertex 0.007 0.027 0
   vertex 0.011 0.025 0
  endloop
 endfacet
 facet normal 0 0 -1
  outer loop
   vertex 0.011 0.025 0
   vertex 0.007 0.027 0
   vertex 0.013 0.027 0
  endloop
 endfacet
 facet normal 0 0 -1
  outer loop
   vertex 0.013 0.021 0
   vertex 0.011 0.025 0
   vertex 0.013 0.027 0
  endloop
 endfacet
 facet normal 0 0 -1
  outer loop
   vertex 0.013 0.021 0
   vertex 0.011 0.023 0
   vertex 0.011 0.025 0
  endloop
 endfacet
 facet normal 0 0 -1
  outer loop
   vertex 0.013 0.021 0
   vertex 0.007 0.021 0
   vertex 0.011 0.023 0
  endloop
 endfacet
 facet normal 0 0 -1
  outer loop
   vertex 0.011 0.023 0
   vertex 0.007 0.021 0
   vertex 0.005 0.023 0
  endloop
 endfacet
 facet normal -0 0 -1
  outer loop
   vertex 0.005 0.023 0
   vertex 0.007 0.021 0
   vertex 0.005 0.017 0
  endloop
 endfacet
 facet normal 0 -0 -1
  outer loop
   vertex 0.005 0.017 0
   vertex 0.007 0.021 0
   vertex 0.007 0.019 0
  endloop
 endfacet
 facet normal 0 0 -1
  outer loop
   vertex 0.011 0.017 0
   vertex 0.007 0.019 0
   vertex 0.013 0.019 0
  endloop
 endfacet
 facet normal 0 0 -1
  outer loop
   vertex 0.013 0.013 0
   vertex 0.011 0.017 0
   vertex 0.013 0.019 0
  endloop
 endfacet
 facet normal 0 0 -1
  outer loop
   vertex 0.013 0.013 0
   vertex 0.011 0.015 0
   vertex 0.011 0.017 0
  endloop
 endfacet
 facet normal 0 0 -1
  outer loop
   vertex 0.013 0.013 0
   vertex 0.01 0.013 0
   vertex 0.011 0.015 0
  endloop
 endfacet
 facet normal 0 0 -1
  outer loop
   vertex 0.011 0.015 0
   vertex 0.01 0.013 0
   vertex 0.008 0.015 0
  endloop
 endfacet
 facet normal -0 0 -1
  outer loop
   vertex 0.008 0.015 0
   vertex 0.01 0.013 0
   vertex 0.008 0.011 0
  endloop
 endfacet
 facet normal 0 -0 -1
  outer loop
   vertex 0.008 0.011 0
   vertex 0.01 0.013 0
   vertex 0.01 0.011 0
  endloop
 endfacet
 facet normal 0 -0 -1
  outer loop
   vertex 0.007 0.009 0
   vertex 0.01 0.011 0
   vertex 0.011 0.009 0
  endloop
 endfacet
 facet normal 0 -0 -1
  outer loop
   vertex 0.007 0.009 0
   vertex 0.008 0.011 0
   vertex 0.01 0.011 0
  endloop
 endfacet
 facet normal 0 0 -1
  outer loop
   vertex 0.007 0.009 0
   vertex 0.005 0.011 0
   vertex 0.008 0.011 0
  endloop
 endfacet
 facet normal 0 0 -1
  outer loop
   vertex 0.007 0.009 0
   vertex 0.005 0.007 0
   vertex 0.005 0.011 0
  endloop
 endfacet
 facet normal 0 0 -1
  outer loop
   vertex 0.007 0.009 0
   vertex 0.007 0.007 0
   vertex 0.005 0.007 0
  endloop
 endfacet
 facet normal 0 -0 -1
  outer loop
   vertex 0.005 0.017 0
   vertex 0.007 0.019 0
   vertex 0.011 0.017 0
  endloop
 endfacet
 facet normal -0 0 -1
  outer loop
   vertex 0.01 0.011 0
   vertex 0.013 0.011 0
   vertex 0.011 0.009 0
  endloop
 endfacet
 facet normal 0 -0 -1
  outer loop
   vertex 0.011 0.009 0
   vertex 0.013 0.011 0
   vertex 0.013 0.007 0
  endloop
 endfacet
 facet normal 0 0 -1
  outer loop
   vertex 0.011 0.007 0
   vertex 0.011 0.009 0
   vertex 0.013 0.007 0
  endloop
 endfacet
 facet normal 0 0 1
  outer loop
   vertex 0.008 0.034 0.001
   vertex 0.008 0.031 0.001
   vertex 0.01 0.034 0.001
  endloop
 endfacet
 facet normal -0 0 1
  outer loop
   vertex 0.01 0.034 0.001
   vertex 0.008 0.031 0.001
   vertex 0.01 0.029 0.001
  endloop
 endfacet
 facet normal 0 0 1
  outer loop
   vertex 0.01 0.029 0.001
   vertex 0.008 0.031 0.001
   vertex 0.007 0.029 0.001
  endloop
 endfacet
 facet normal 0 0 1
  outer loop
   vertex 0.007 0.029 0.001
   vertex 0.008 0.031 0.001
   vertex 0.005 0.031 0.001
  endloop
 endfacet
 facet normal 0 0 1
  outer loop
   vertex 0.005 0.025 0.001
   vertex 0.007 0.029 0.001
   vertex 0.005 0.031 0.001
  endloop
 endfacet
 facet normal 0 -0 1
  outer loop
   vertex 0.005 0.025 0.001
   vertex 0.007 0.027 0.001
   vertex 0.007 0.029 0.001
  endloop
 endfacet
 facet normal 0 0 1
  outer loop
   vertex 0.005 0.025 0.001
   vertex 0.011 0.025 0.001
   vertex 0.007 0.027 0.001
  endloop
 endfacet
 facet normal 0 -0 1
  outer loop
   vertex 0.007 0.027 0.001
   vertex 0.011 0.025 0.001
   vertex 0.013 0.027 0.001
  endloop
 endfacet
 facet normal -0 0 1
  outer loop
   vertex 0.013 0.027 0.001
   vertex 0.011 0.025 0.001
   vertex 0.013 0.021 0.001
  endloop
 endfacet
 facet normal 0 0 1
  outer loop
   vertex 0.013 0.021 0.001
   vertex 0.011 0.025 0.001
   vertex 0.011 0.023 0.001
  endloop
 endfacet
 facet normal 0 0 1
  outer loop
   vertex 0.007 0.021 0.001
   vertex 0.011 0.023 0.001
   vertex 0.005 0.023 0.001
  endloop
 endfacet
 facet normal 0 0 1
  outer loop
   vertex 0.005 0.017 0.001
   vertex 0.007 0.021 0.001
   vertex 0.005 0.023 0.001
  endloop
 endfacet
 facet normal 0 -0 1
  outer loop
   vertex 0.005 0.017 0.001
   vertex 0.007 0.019 0.001
   vertex 0.007 0.021 0.001
  endloop
 endfacet
 facet normal 0 0 1
  outer loop
   vertex 0.005 0.017 0.001
   vertex 0.011 0.017 0.001
   vertex 0.007 0.019 0.001
  endloop
 endfacet
 facet normal 0 -0 1
  outer loop
   vertex 0.007 0.019 0.001
   vertex 0.011 0.017 0.001
   vertex 0.013 0.019 0.001
  endloop
 endfacet
 facet normal -0 0 1
  outer loop
   vertex 0.013 0.019 0.001
   vertex 0.011 0.017 0.001
   vertex 0.013 0.013 0.001
  endloop
 endfacet
 facet normal 0 0 1
  outer loop
   vertex 0.013 0.013 0.001
   vertex 0.011 0.017 0.001
   vertex 0.011 0.015 0.001
  endloop
 endfacet
 facet normal 0 0 1
  outer loop
   vertex 0.01 0.013 0.001
   vertex 0.011 0.015 0.001
   vertex 0.008 0.015 0.001
  endloop
 endfacet
 facet normal 0 0 1
  outer loop
   vertex 0.008 0.011 0.001
   vertex 0.01 0.013 0.001
   vertex 0.008 0.015 0.001
  endloop
 endfacet
 facet normal 0 -0 1
  outer loop
   vertex 0.008 0.011 0.001
   vertex 0.01 0.011 0.001
   vertex 0.01 0.013 0.001
  endloop
 endfacet
 facet normal 0 0 1
  outer loop
   vertex 0.008 0.011 0.001
   vertex 0.011 0.009 0.001
   vertex 0.01 0.011 0.001
  endloop
 endfacet
 facet normal 0 0 1
  outer loop
   vertex 0.008 0.011 0.001
   vertex 0.007 0.009 0.001
   vertex 0.011 0.009 0.001
  endloop
 endfacet
 facet normal -0 0 1
  outer loop
   vertex 0.008 0.011 0.001
   vertex 0.005 0.011 0.001
   vertex 0.007 0.009 0.001
  endloop
 endfacet
 facet normal 0 0 1
  outer loop
   vertex 0.007 0.009 0.001
   vertex 0.005 0.011 0.001
   vertex 0.005 0.007 0.001
  endloop
 endfacet
 facet normal 0 0 1
  outer loop
   vertex 0.007 0.007 0.001
   vertex 0.007 0.009 0.001
   vertex 0.005 0.007 0.001
  endloop
 endfacet
 facet normal 0 0 1
  outer loop
   vertex 0.013 0.021 0.001
   vertex 0.011 0.023 0.001
   vertex 0.007 0.021 0.001
  endloop
 endfacet
 facet normal 0 0 1
  outer loop
   vertex 0.013 0.013 0.001
   vertex 0.011 0.015 0.001
   vertex 0.01 0.013 0.001
  endloop
 endfacet
 facet normal 0 0 1
  outer loop
   vertex 0.011 0.007 0.001
   vertex 0.013 0.007 0.001
   vertex 0.011 0.009 0.001
  endloop
 endfacet
 facet normal 0 -0 1
  outer loop
   vertex 0.011 0.009 0.001
   vertex 0.013 0.007 0.001
   vertex 0.013 0.011 0.001
  endloop
 endfacet
 facet normal 0 -0 1
  outer loop
   vertex 0.01 0.011 0.001
   vertex 0.011 0.009 0.001
   vertex 0.013 0.011 0.001
  endloop
 endfacet
endsolid
